<svg width="234" height="33" viewBox="0 0 234 33" fill="none" xmlns="http://www.w3.org/2000/svg">
<path d="M5.32031 30.6172C5.50781 30.4609 5.73438 30.2734 6 30.0547L6.35156 29.75L11.8359 24.2656C12.4609 23.6406 12.875 23.25 13.0781 23.0938C13.2812 22.9219 13.5 22.7031 13.7344 22.4375C13.9688 22.1719 14.2734 21.8594 14.6484 21.5C15.0391 21.1406 15.3516 20.8359 15.5859 20.5859C16.2266 20.0078 16.6484 19.6016 16.8516 19.3672C19.0547 17.3516 21.9609 14.5625 25.5703 11L30.6562 6.05469C31.0312 5.64844 31.3594 5.32812 31.6406 5.09375C32.6094 3.98438 33.375 3.13281 33.9375 2.53906C34.1094 2.38281 34.5156 1.95312 35.1562 1.25C35.3594 1.21875 35.5547 1.20312 35.7422 1.20312C35.9297 1.20312 36.1953 1.21875 36.5391 1.25L36.5625 1.50781C36.4531 2.80469 36.3984 3.73438 36.3984 4.29688C36.2891 4.9375 36.2266 5.84375 36.2109 7.01562L35.9062 11.2344C35.875 11.5625 35.8281 12.3906 35.7656 13.7188L34.9219 24.7109L34.9453 25.2266L34.8984 26.4453V26.7969C34.8516 26.9844 34.8203 27.1172 34.8047 27.1953L34.7578 29.2109L34.7812 29.5156L34.7109 30.4531C34.8359 30.6719 35.1719 30.8125 35.7188 30.875C37.1094 31.0156 38.1406 31.2109 38.8125 31.4609L38.8359 31.7656C38.8359 31.8906 38.7969 32.0781 38.7188 32.3281C38.1562 32.2344 37.8125 32.1797 37.6875 32.1641L34.8047 31.9766L32.7188 32.0234C31.3594 32.1797 30.25 32.2578 29.3906 32.2578L28.8281 32.3281L28.1484 32.3047C27.4609 32.3672 27.0547 32.3984 26.9297 32.3984C26.6953 32.3984 26.4141 32.3672 26.0859 32.3047L26.1328 31.6484C26.5859 31.5234 27.1016 31.4375 27.6797 31.3906C28.6328 31.3281 29.5 31.1875 30.2812 30.9688C30.4844 30.9219 30.625 30.8984 30.7031 30.8984H30.8203C30.9922 30.7266 31.1016 30.5703 31.1484 30.4297C31.2422 30.1328 31.3984 28.8984 31.6172 26.7266C31.8516 24.5547 31.9766 22.8984 31.9922 21.7578C32.0078 21.1953 32.0234 20.7812 32.0391 20.5156C31.8516 20.5 31.3984 20.4922 30.6797 20.4922C29.7891 20.4922 27.0156 20.5547 22.3594 20.6797L17.625 20.8438C17.5156 20.8594 17.3516 20.875 17.1328 20.8906C16.9141 21.0156 16.6406 21.2422 16.3125 21.5703C16 21.8984 15.6016 22.2422 15.1172 22.6016C14.4453 23.3203 13.4219 24.2891 12.0469 25.5078C11.5 26.0078 11.0312 26.4688 10.6406 26.8906L8.88281 28.7891C8.66406 28.9609 8.46875 29.1406 8.29688 29.3281C8.17188 29.4375 8.04688 29.5391 7.92188 29.6328C7.8125 29.8047 7.70312 29.9688 7.59375 30.125C7.625 30.2969 7.64062 30.4922 7.64062 30.7109C8.0625 30.9453 8.63281 31.0938 9.35156 31.1562C9.67969 31.1875 10.0312 31.2266 10.4062 31.2734C10.9219 31.3672 11.3047 31.4219 11.5547 31.4375C11.7422 31.4688 11.9062 31.5156 12.0469 31.5781C12.0312 31.8281 11.9688 32.0938 11.8594 32.375L7.52344 32.0703L4.28906 32.2344C3.80469 32.25 3.44531 32.2734 3.21094 32.3047H2.97656C2.85156 32.3047 2.57812 32.3281 2.15625 32.375L1.03125 32.3984C0.84375 32.3984 0.640625 32.3672 0.421875 32.3047C0.375 32.0703 0.351562 31.8125 0.351562 31.5312L0.632812 31.4141L3.21094 31.1797L4.80469 30.8984C4.91406 30.8516 5.08594 30.7578 5.32031 30.6172ZM23.0391 19.6953C23.3828 19.6953 23.6406 19.7031 23.8125 19.7188H24.375L27.3047 19.5781L31.125 19.3203C31.4688 19.2734 31.7969 19.2422 32.1094 19.2266C32.1562 18.9453 32.1953 18.5156 32.2266 17.9375C32.3203 17.3281 32.375 16.9609 32.3906 16.8359L32.8359 10.0156L33.1875 5.63281C32.9844 5.72656 32.5312 6.08594 31.8281 6.71094C31.5 6.91406 31.0625 7.27344 30.5156 7.78906L25.1016 12.9453L24.1641 13.8359C23.8047 14.2266 23.4453 14.5703 23.0859 14.8672C22.7422 15.1641 22.4141 15.4766 22.1016 15.8047C21.9453 15.9766 21.7344 16.1719 21.4688 16.3906C21.2188 16.5938 20.9844 16.8125 20.7656 17.0469C20.5469 17.2188 20.3203 17.4375 20.0859 17.7031C19.8516 17.9688 19.5859 18.2422 19.2891 18.5234C19.0859 18.7266 18.7734 19.0625 18.3516 19.5312C18.6016 19.6875 19.1875 19.7656 20.1094 19.7656L21.3047 19.7422C21.8672 19.7109 22.4453 19.6953 23.0391 19.6953ZM41.0859 31.4141C41.4766 31.3828 41.8359 31.3203 42.1641 31.2266C42.4141 31.2109 42.8984 31.1172 43.6172 30.9453C44.4922 30.8516 45.1719 30.6328 45.6562 30.2891C45.8281 30.1797 45.9297 30.0781 45.9609 29.9844C46.0078 29.8906 46.2188 28 46.5938 24.3125L47.4375 15.3359C47.9219 11.3203 48.1797 8.71875 48.2109 7.53125C48.2266 7.14062 48.2969 6.64844 48.4219 6.05469L48.5625 3.96875C48.5625 3.73438 48.4688 3.52344 48.2812 3.33594C48.0156 3.08594 47.7031 2.90625 47.3438 2.79688C45.6094 2.67188 44.5703 2.57813 44.2266 2.51562C44.1172 2.3125 44.0625 2.16406 44.0625 2.07031C44.0625 1.97656 44.1094 1.84375 44.2031 1.67188C44.3906 1.60937 44.5703 1.57812 44.7422 1.57812C45.7734 1.57812 46.8438 1.59375 47.9531 1.625C49.0625 1.65625 49.7344 1.67188 49.9688 1.67188L57.0234 1.46094L57.9844 1.4375C59.3438 1.39062 60.4922 1.51562 61.4297 1.8125C62.3828 2.09375 63.2266 2.57813 63.9609 3.26562C64.6953 3.95312 65.2031 4.72656 65.4844 5.58594C65.7656 6.42969 65.9062 7.125 65.9062 7.67188C65.9062 9.21875 65.3359 10.6875 64.1953 12.0781C63.0547 13.4531 61.1797 14.8203 58.5703 16.1797C58.9766 16.8672 60.9141 19.8984 64.3828 25.2734C64.7109 25.7891 65.2188 26.6172 65.9062 27.7578C66.6094 28.8984 67.2656 29.6953 67.875 30.1484C68.4844 30.5859 69.2578 30.8594 70.1953 30.9688C70.6328 31.0312 71.1875 31.1328 71.8594 31.2734L71.7656 32.2578C71.1562 32.2578 70.3672 32.2266 69.3984 32.1641C67.6641 32.0391 66.3438 31.9766 65.4375 31.9766L62.0391 32.0234L60.5625 32.1172L60.3281 32.0938C60.1562 32.0938 60.0156 32.125 59.9062 32.1875C59.7031 32.0312 59.5938 31.7891 59.5781 31.4609C59.7344 31.3047 59.9219 31.2031 60.1406 31.1562C60.5938 31.0469 61.4219 30.9922 62.625 30.9922C63.1562 30.9922 63.6172 30.8438 64.0078 30.5469C63.8203 29.9531 63.2188 28.9688 62.2031 27.5938C62.0312 27.3438 61.2109 26.1094 59.7422 23.8906L55.2656 17.1641C54.1562 17.3984 52.9922 17.5156 51.7734 17.5156C51.5547 17.5156 51.1484 17.5 50.5547 17.4688L49.9688 23.75L49.5234 28.0391L49.4531 29C49.4062 29.375 49.3828 29.6016 49.3828 29.6797C49.3828 29.7891 49.4141 29.9688 49.4766 30.2188C50.1172 30.5156 50.8359 30.7344 51.6328 30.875C52.4453 31 53.2109 31.1562 53.9297 31.3438C53.9609 31.4844 53.9766 31.6016 53.9766 31.6953C53.9766 31.7891 53.9688 31.9062 53.9531 32.0469C53.4844 32.0625 53.1484 32.0703 52.9453 32.0703C52.7266 32.0703 52.3281 32.0547 51.75 32.0234C50.9375 31.9609 50.125 31.9297 49.3125 31.9297C47.5469 31.9297 46.1094 31.9609 45 32.0234C43.9062 32.1016 42.9375 32.1406 42.0938 32.1406C41.8438 32.1406 41.5938 32.1484 41.3438 32.1641C41.2656 32.1641 41.1406 32.1484 40.9688 32.1172C40.9844 31.9609 40.9922 31.8438 40.9922 31.7656C41.0078 31.5938 41.0391 31.4766 41.0859 31.4141ZM52.2422 2.91406L52.1016 3.33594C51.8047 4.14844 51.6484 5.16406 51.6328 6.38281C51.6328 6.50781 51.625 6.63281 51.6094 6.75781L51.1641 10.5781C50.9453 13.3281 50.8047 15.0234 50.7422 15.6641L50.7656 16.0859C51.1719 16.2266 51.8125 16.2969 52.6875 16.2969C53.0938 16.2969 53.8594 16.1953 54.9844 15.9922C55.7188 15.8516 56.5234 15.5547 57.3984 15.1016C58.0547 14.7734 58.6875 14.3203 59.2969 13.7422C60.1562 12.7734 60.6328 12.2109 60.7266 12.0547C61.1797 11.3203 61.5391 10.5234 61.8047 9.66406C62.0859 8.80469 62.2266 8.04688 62.2266 7.39062C62.2266 5.92187 61.7109 4.73438 60.6797 3.82812C59.6641 2.90625 57.9922 2.44531 55.6641 2.44531C54.3047 2.44531 53.1641 2.60156 52.2422 2.91406ZM74.1797 0.710938C74.2578 0.976562 74.4453 1.19531 74.7422 1.36719C75.1172 1.58594 75.6875 1.69531 76.4531 1.69531L78.4688 1.67188L79.3828 1.74219L81.3047 1.69531L83.8359 1.71875L85.5469 1.625L87.8672 1.69531L89.8359 1.60156C90.0547 1.60156 90.3125 1.60937 90.6094 1.625C91.5312 1.65625 92.0859 1.67188 92.2734 1.67188C92.4922 1.67188 92.8359 1.66406 93.3047 1.64844C93.7734 1.61719 94.7422 1.59375 96.2109 1.57812C97.6797 1.54688 98.7891 1.25 99.5391 0.6875L99.9141 0.757812H100.43C100.148 2.30469 99.8594 3.59375 99.5625 4.625C99.4062 5.21875 99.2969 5.70312 99.2344 6.07812C99.1875 6.35938 99.1016 6.78906 98.9766 7.36719C98.6328 7.35156 98.3281 7.3125 98.0625 7.25C98.0469 5.46875 97.7031 4.24219 97.0312 3.57031C96.3594 2.89844 95.0703 2.5625 93.1641 2.5625C91.4922 2.5625 89.9688 2.64062 88.5938 2.79688C88.1719 2.85938 87.8359 2.9375 87.5859 3.03125C87.5234 3.20312 87.4688 3.35938 87.4219 3.5C87.2188 4.28125 86.8984 6.5 86.4609 10.1562C86.3359 11.2656 85.75 14.7188 84.7031 20.5156L82.9688 29C82.9062 29.4219 82.8594 29.6797 82.8281 29.7734C82.7344 30.1172 82.6875 30.3672 82.6875 30.5234C82.6875 30.7422 82.7734 30.9062 82.9453 31.0156C83.2734 31.2031 83.9141 31.3047 84.8672 31.3203C85.0859 31.3203 85.6875 31.3594 86.6719 31.4375C87.2812 31.4844 87.6328 31.5312 87.7266 31.5781C87.7891 31.6094 87.8438 31.6719 87.8906 31.7656L87.7734 32.5156C86.7109 32.5 85.8594 32.4531 85.2188 32.375C84.5781 32.2969 84.0625 32.2578 83.6719 32.2578C81.0781 32.2578 77.9062 32.3281 74.1562 32.4688C74.25 32.125 74.375 31.8125 74.5312 31.5312C75.3125 31.4219 76.1641 31.3438 77.0859 31.2969C77.3047 31.2344 77.5938 31.1641 77.9531 31.0859C78.4844 30.9766 78.8203 30.8672 78.9609 30.7578C79.1016 30.6328 79.2266 30.4375 79.3359 30.1719C79.8047 29.0156 80.3047 26.4688 80.8359 22.5312L82.9922 10.4609C83.6797 6.57031 84.0547 4.02344 84.1172 2.82031C83.6484 2.74219 83.1406 2.70312 82.5938 2.70312C79.6406 2.70312 77.7031 2.8125 76.7812 3.03125C75.8594 3.25 75.0859 3.60938 74.4609 4.10938C73.8516 4.59375 72.9766 5.64062 71.8359 7.25C71.5547 7.20312 71.2812 7.17188 71.0156 7.15625C71.1406 6.73438 71.2812 6.33594 71.4375 5.96094C72.125 4.27344 72.7188 2.51562 73.2188 0.6875H73.875L74.1797 0.710938ZM100.945 30.9922C101.008 30.7266 101.078 30.3906 101.156 29.9844C102 25.8281 102.562 22.8672 102.844 21.1016L104.297 13.1562C104.344 12.9688 104.461 12.1953 104.648 10.8359L105.422 6.89844C105.562 6.24219 105.672 5.40625 105.75 4.39062C105.766 4.1875 105.773 3.98438 105.773 3.78125C105.773 3.42188 105.641 3.15625 105.375 2.98438C105.109 2.79688 104.211 2.65625 102.68 2.5625L101.18 2.46875C101.195 2.1875 101.25 1.89844 101.344 1.60156H104.203L107.695 1.57812L109.641 1.625L126.141 1.4375C126.516 1.4375 126.867 1.45313 127.195 1.48438C127.414 1.5 127.703 1.50781 128.062 1.50781C128.031 1.91406 127.867 2.88281 127.57 4.41406C127.398 5.33594 127.195 6.10156 126.961 6.71094C126.727 6.67969 126.531 6.57812 126.375 6.40625C126.203 5.46875 126.109 4.85938 126.094 4.57812C126.047 3.82812 126.016 3.40625 126 3.3125C125.984 3.20312 125.906 2.96094 125.766 2.58594C125.266 2.49219 124.828 2.4375 124.453 2.42188C124.266 2.40625 124.023 2.38281 123.727 2.35156C123.383 2.36719 123.086 2.36719 122.836 2.35156L122.227 2.39844L121.477 2.375L119.859 2.49219H118.031L116.719 2.51562L116.25 2.49219L115.359 2.51562H114.984L114.117 2.53906H113.531L111.188 2.60938C110.781 2.64062 110.422 2.69531 110.109 2.77344C109.953 2.82031 109.688 2.92969 109.312 3.10156C109.281 3.44531 109.211 3.89063 109.102 4.4375L108.539 7.41406L108.047 10.1797L107.977 10.8594C107.602 12.7344 107.367 14.0625 107.273 14.8438C107.258 15.0625 107.234 15.2969 107.203 15.5469C108 15.4375 110.203 15.2812 113.812 15.0781C118.219 14.8281 120.562 14.6641 120.844 14.5859C121.453 14.4297 121.922 14.1875 122.25 13.8594C122.594 13.5312 123.195 12.4297 124.055 10.5547L124.945 10.4375C124.805 11.3281 124.477 12.9609 123.961 15.3359C123.883 15.6328 123.805 16.0547 123.727 16.6016C123.664 16.9766 123.523 17.6016 123.305 18.4766C123.227 18.8203 123.172 19.0859 123.141 19.2734C123.062 19.8516 122.977 20.2734 122.883 20.5391C122.602 20.5078 122.328 20.4922 122.062 20.4922L122.039 20.375C122.039 20.2969 122.062 20.1484 122.109 19.9297C122.188 19.6172 122.227 19.0703 122.227 18.2891C122.227 17.2578 122.062 16.5781 121.734 16.25C121.406 15.9219 120.688 15.7578 119.578 15.7578C118.484 15.7578 117.18 15.8672 115.664 16.0859C114.508 16.1016 112.867 16.1875 110.742 16.3438L109.102 16.4609L108.656 16.5312C108.219 16.5312 107.883 16.5547 107.648 16.6016C107.523 16.6172 107.328 16.6328 107.062 16.6484C106.812 17.9297 106.625 18.8281 106.5 19.3438C106.172 20.6562 105.945 21.6953 105.82 22.4609L104.414 29.4688C104.367 29.75 104.344 29.9922 104.344 30.1953C104.344 30.3516 104.398 30.5469 104.508 30.7812C104.836 31.0625 105.148 31.25 105.445 31.3438C105.742 31.4219 106.32 31.4688 107.18 31.4844C107.383 31.4844 107.773 31.4922 108.352 31.5078C108.523 31.5234 108.656 31.5312 108.75 31.5312L112.477 31.3672L113.391 31.3203L114 31.3438C114.922 31.3438 115.961 31.25 117.117 31.0625C117.414 31.0156 117.789 30.9688 118.242 30.9219C120.242 30.6719 122.023 29.9688 123.586 28.8125C124.742 27.9375 125.672 26.6094 126.375 24.8281H126.703C126.828 24.8281 126.961 24.8438 127.102 24.875C126.93 25.6406 126.25 28.0703 125.062 32.1641C123.391 32.2109 120.961 32.2344 117.773 32.2344L114.328 32.3047H113.32L110.367 32.3984L108.234 32.3516L105.961 32.375L100.805 32.3516L99.6562 32.3984L97.6406 32.3516L95.6016 32.375L95.5781 31.6484L97.7578 31.5547L99.2109 31.3672C99.6172 31.2891 100.195 31.1641 100.945 30.9922ZM162.422 1.4375C162.359 1.98437 162.188 2.85156 161.906 4.03906C161.641 5.21094 161.414 6.09375 161.227 6.6875L160.547 6.66406V6.05469C160.547 4.35156 160.359 3.28906 159.984 2.86719C159.625 2.42969 158.852 2.21094 157.664 2.21094C157.18 2.22656 156.805 2.23438 156.539 2.23438H155.672C155.25 2.21875 154.977 2.21094 154.852 2.21094C153.742 2.21094 152.5 2.42969 151.125 2.86719C149.75 3.28906 148.102 4.09375 146.18 5.28125C145.289 5.84375 143.961 6.95312 142.195 8.60938C141.508 9.26562 140.328 10.7891 138.656 13.1797L137.859 14.5859L136.852 17.1172C136.602 17.9453 136.422 18.7422 136.312 19.5078C136.219 20.2734 136.172 21.0547 136.172 21.8516C136.172 22.9141 136.289 23.9141 136.523 24.8516C136.758 25.7891 137.07 26.5078 137.461 27.0078C138.289 28.0391 139.164 28.8984 140.086 29.5859C141.023 30.2578 142.094 30.7812 143.297 31.1562C144.516 31.5312 145.922 31.7188 147.516 31.7188C149.156 31.7188 150.508 31.4844 151.57 31.0156C152.633 30.5469 153.562 29.8828 154.359 29.0234C154.625 28.7422 155.375 27.6406 156.609 25.7188L157.383 25.9531L156.117 29.9375C155.898 30.625 155.727 31.125 155.602 31.4375C154.586 31.8125 153.539 32.0859 152.461 32.2578C150.398 32.5859 148.391 32.75 146.438 32.75C143.578 32.75 141.375 32.4766 139.828 31.9297C138.281 31.3828 136.773 30.4297 135.305 29.0703C134.258 28.1016 133.461 26.875 132.914 25.3906C132.367 23.8906 132.094 22.5 132.094 21.2188C132.094 19.2812 132.391 17.6328 132.984 16.2734C134.234 13.3984 135.664 11.1172 137.273 9.42969C138.898 7.72656 140.812 6.21875 143.016 4.90625C144.609 3.95312 146.461 3.07031 148.57 2.25781C150.695 1.42969 152.883 1.01562 155.133 1.01562L159.258 0.96875C160.258 0.96875 161.312 1.125 162.422 1.4375ZM162.633 18.4297C162.633 16.8203 162.953 15.1719 163.594 13.4844C164.234 11.7812 165.078 10.0312 166.125 8.23438C166.469 7.60937 167.641 6.29687 169.641 4.29688C170.297 3.64062 171.688 2.82031 173.812 1.83594C174.688 1.41406 175.805 1.16406 177.164 1.08594C177.523 1.05469 177.969 1.00781 178.5 0.945312C179.047 0.882812 179.516 0.851562 179.906 0.851562C183.141 0.851562 185.969 2.38281 188.391 5.44531C190.188 7.71094 191.086 10.8203 191.086 14.7734C191.086 16.1328 190.797 17.7266 190.219 19.5547C189.656 21.3828 188.82 23.0859 187.711 24.6641C186.602 26.2422 185.312 27.6797 183.844 28.9766C182.391 30.2578 180.852 31.1953 179.227 31.7891C177.602 32.3672 175.984 32.6562 174.375 32.6562C172.344 32.6562 170.492 32.1328 168.82 31.0859C167.164 30.0391 165.82 28.6641 164.789 26.9609C163.352 24.5703 162.633 21.7266 162.633 18.4297ZM169.547 29.6562C170.062 30.1406 170.516 30.4844 170.906 30.6875C171.297 30.875 172.125 31.1719 173.391 31.5781C173.734 31.6719 174.203 31.7031 174.797 31.6719L175.758 31.625C177.477 31.2188 178.625 30.8359 179.203 30.4766C180.172 29.8984 181.094 29.0625 181.969 27.9688C183.156 26.4688 184.133 24.8125 184.898 23C185.68 21.1875 186.25 19.6328 186.609 18.3359C187.109 16.5391 187.359 14.8828 187.359 13.3672C187.359 11.9766 187.188 10.625 186.844 9.3125C186.516 7.98437 186.242 7.10938 186.023 6.6875C185.461 5.625 184.844 4.75781 184.172 4.08594C183.516 3.41406 182.75 2.88281 181.875 2.49219C181 2.10156 180.062 1.90625 179.062 1.90625C177.438 1.90625 175.875 2.3125 174.375 3.125C172.891 3.9375 171.617 5.03906 170.555 6.42969C169.508 7.80469 168.508 9.85156 167.555 12.5703C166.602 15.2891 166.125 17.7812 166.125 20.0469C166.125 22.4375 166.492 24.5547 167.227 26.3984C167.602 27.3359 168.375 28.4219 169.547 29.6562ZM190.031 32.0469V31.8594C190.031 31.5312 190.109 31.2812 190.266 31.1094C191.344 31 192.141 30.8281 192.656 30.5938C193 30.5 193.312 30.3281 193.594 30.0781C193.875 29.8125 194.266 29.1953 194.766 28.2266C195.266 27.2578 195.914 25.5625 196.711 23.1406L198.82 17.0938C199.117 16.1094 199.32 15.4609 199.43 15.1484L202.312 7.29688C202.703 6.09375 203.055 5.10156 203.367 4.32031C203.539 3.88281 203.625 3.55469 203.625 3.33594C203.625 2.88281 203.438 2.57031 203.062 2.39844C202.688 2.21094 201.898 2.05469 200.695 1.92969C199.289 1.97656 198.539 2 198.445 2H198.164L197.93 1.0625C198.492 1.01562 198.828 0.992188 198.938 0.992188C199.391 1.02344 199.695 1.03906 199.852 1.03906L201.867 0.96875C203.148 0.96875 204.227 1.00781 205.102 1.08594C205.445 1.11719 205.93 1.14062 206.555 1.15625C206.633 1.23437 206.688 1.32031 206.719 1.41406C206.875 1.80469 207.031 2.46875 207.188 3.40625L207.891 7.25C208.047 7.8125 208.258 8.875 208.523 10.4375C209.039 13.3906 209.391 15.6328 209.578 17.1641C210.062 19.3984 210.375 21.0703 210.516 22.1797C210.531 22.3203 210.711 23.3594 211.055 25.2969C211.195 26.1406 211.305 26.6875 211.383 26.9375C212.117 25.8594 212.75 24.8672 213.281 23.9609C213.828 23.0391 214.758 21.3438 216.07 18.875L221.062 10.2031L222.094 8.39844C223.359 6.00781 224.781 3.55469 226.359 1.03906C227.406 1.10156 228.414 1.13281 229.383 1.13281C229.508 1.13281 229.664 1.13281 229.852 1.13281C230.039 1.11719 230.258 1.10938 230.508 1.10938L233.227 1.03906C233.336 1.05469 233.484 1.07031 233.672 1.08594L233.602 1.83594C233.211 1.97656 232.633 2.11719 231.867 2.25781C230.789 2.47656 230.07 2.69531 229.711 2.91406C229.367 3.13281 229.141 3.42188 229.031 3.78125C228.547 6.92188 227.906 10.7422 227.109 15.2422L224.977 27.4297L224.953 27.6172C224.922 27.8516 224.883 28.3125 224.836 29C224.82 29.2656 224.797 29.4766 224.766 29.6328L224.719 29.8672C224.719 29.9453 224.742 30.0469 224.789 30.1719C225.102 30.4062 225.375 30.5703 225.609 30.6641C225.969 30.7891 226.789 30.9375 228.07 31.1094C228.648 31.1875 229.078 31.2578 229.359 31.3203V31.5312C229.359 31.6562 229.32 31.8125 229.242 32C228.57 32.0312 228.086 32.0469 227.789 32.0469C227.039 32.0469 226.156 32 225.141 31.9062C224.375 31.8281 223.422 31.7891 222.281 31.7891C221.266 31.7891 220.07 31.8203 218.695 31.8828C218.211 31.8984 217.898 31.9062 217.758 31.9062C217.539 31.9062 217.266 31.8906 216.938 31.8594C216.875 31.6875 216.844 31.5625 216.844 31.4844C216.844 31.3594 216.898 31.1797 217.008 30.9453C217.414 30.9141 217.711 30.8984 217.898 30.8984C219.32 30.8359 220.297 30.6641 220.828 30.3828C221.031 30.2734 221.211 30.0781 221.367 29.7969C221.57 29.4062 221.805 28.3672 222.07 26.6797L223.031 21.1484L224.133 14.7734C224.32 13.5859 224.484 12.4141 224.625 11.2578C224.844 10.1172 225.016 9.04688 225.141 8.04688C225.281 7.03125 225.398 6.27344 225.492 5.77344C225.602 5.07031 225.672 4.52344 225.703 4.13281C223.062 8.77344 221.406 11.6016 220.734 12.6172C220.578 12.8672 219.547 14.6641 217.641 18.0078L216.633 20C216.32 20.4219 216.055 20.8281 215.836 21.2188C213.164 25.9531 211.258 29.4297 210.117 31.6484C209.852 32.1484 209.617 32.5703 209.414 32.9141H208.523C208.523 32.1328 208.492 31.4062 208.43 30.7344C208.289 29.0469 208.141 27.6719 207.984 26.6094C207.953 26.4219 207.742 25.3047 207.352 23.2578L205.969 15.6875C205.828 14.9375 205.742 14.3594 205.711 13.9531C205.68 13.5312 205.594 13.0156 205.453 12.4062C205.25 11.5312 204.984 10.1641 204.656 8.30469L204.07 5.25781C203.945 5.52344 203.844 5.80469 203.766 6.10156L201.281 13.2031L199.758 17.75C199.305 18.8906 198.75 20.5938 198.094 22.8594C197.453 25.125 196.859 26.9922 196.312 28.4609C196.172 28.8672 196.102 29.2031 196.102 29.4688C196.102 29.75 196.203 29.9922 196.406 30.1953C196.609 30.3828 197.148 30.625 198.023 30.9219C198.398 30.9844 198.703 31.0391 198.938 31.0859C199.828 31.1484 200.43 31.2188 200.742 31.2969C200.852 31.3281 200.945 31.4062 201.023 31.5312C201.023 31.8125 200.984 32.0703 200.906 32.3047L199.266 32.2344L198.211 32.1875C198.117 32.1875 197.984 32.1953 197.812 32.2109C196.422 32.0547 194.992 31.9766 193.523 31.9766C193.43 31.9766 192.266 32 190.031 32.0469Z" fill="#1549FE"/>
</svg>
