<svg width="69" height="40" viewBox="0 0 69 40" fill="none" xmlns="http://www.w3.org/2000/svg">
<path d="M4.6 0.0666647V35.5333H10.36V39H0.6V0.0666647H4.6ZM16.5063 19.0533V35.5333H22.2663V39H12.5063V0.0666647H21.7329V3.53333H16.5063V17.88H20.2929V19.0533H16.5063ZM34.7802 18.2533C36.238 19.32 36.9669 21.9511 36.9669 26.1467V32.28C36.9669 34.6267 36.3269 36.3333 35.0469 37.4C33.7669 38.4667 31.9002 39 29.4469 39H24.6469V0.0666647H29.4469C31.6513 0.0666647 33.3224 0.599998 34.4602 1.66667C35.598 2.73333 36.1669 4.44 36.1669 6.78667V10.4667C36.1669 12.3867 35.7402 13.9333 34.8869 15.1067C34.0335 16.2444 32.8069 17.2222 31.2069 18.04V18.5733L34.7802 18.2533ZM28.6469 3.69333V18.1467L29.6602 17.72C30.6202 17.2933 31.278 16.76 31.6335 16.12C31.9891 15.48 32.1669 14.6622 32.1669 13.6667V8.12C32.1669 6.41333 31.9358 5.25778 31.4735 4.65333C31.0469 4.01333 30.2469 3.69333 29.0735 3.69333H28.6469ZM32.9669 22.84C32.9669 20.4933 32.0247 19.32 30.1402 19.32C29.6069 19.32 29.1091 19.4978 28.6469 19.8533V35.3733H29.0735C30.5313 35.3733 31.5447 35.0711 32.1135 34.4667C32.6824 33.8267 32.9669 32.6533 32.9669 30.9467V22.84ZM48.1221 32.8667V0.0666647H52.1221V32.3333C52.1221 34.7867 51.5354 36.6 50.3621 37.7733C49.1888 38.9467 47.6599 39.5333 45.7754 39.5333C43.8554 39.5333 42.4154 39.0533 41.4554 38.0933C40.531 37.1333 40.0688 35.5333 40.0688 33.2933V0.0666647H44.0688V31.48C44.0688 33.2222 44.2643 34.3956 44.6554 35C45.0821 35.6044 45.6688 35.9067 46.4154 35.9067C47.0554 35.9067 47.4999 35.6578 47.7488 35.16C47.9976 34.6622 48.1221 33.8978 48.1221 32.8667ZM67.0898 3.96C65.8809 4.31556 64.9209 5.08 64.2098 6.25333C63.4987 7.42667 62.6276 9.36444 61.5965 12.0667L61.1165 13.3467C60.4053 15.2311 59.9431 16.6711 59.7298 17.6667L60.1031 18.04L64.7431 17.6133L68.2631 39H63.9431L61.9698 23.9067C61.792 22.52 61.5965 21.4889 61.3831 20.8133C61.2053 20.1022 60.9565 19.64 60.6365 19.4267C60.352 19.1778 59.9609 19.0889 59.4631 19.16C59.3565 19.8356 59.3031 20.5467 59.3031 21.2933V39H55.3031V0.0666647H59.3031V4.38667L58.0231 16.9733L58.5565 17.08L63.4631 0.0666647H68.2631V3.64L67.0898 3.96Z" fill="#1549FE"/>
</svg>
