<svg width="29" height="29" viewBox="0 0 29 29" fill="none" xmlns="http://www.w3.org/2000/svg">
<path fill-rule="evenodd" clip-rule="evenodd" d="M14.5 29C22.5081 29 29 22.5081 29 14.5C29 6.49187 22.5081 0 14.5 0C6.49187 0 0 6.49187 0 14.5C0 22.5081 6.49187 29 14.5 29ZM18.48 7.66L14.38 19.78L10.26 7.66H7.48V22H9.34V13.54C9.34 13.4015 9.33668 13.2299 9.33275 13.0264C9.32703 12.7303 9.32 12.3667 9.32 11.94C9.31431 11.7352 9.30862 11.5465 9.30339 11.3732C9.29024 10.9371 9.28 10.5976 9.28 10.34V9.9L13.4 22H15.32L19.42 9.9C19.42 10.3034 19.4147 10.6907 19.4095 11.0647C19.4047 11.414 19.4 11.7517 19.4 12.08C19.38 12.76 19.38 13.24 19.38 13.54V22H21.22V7.66H18.48Z" fill="#1549FE"/>
</svg>
