<svg width="198" height="41" viewBox="0 0 198 41" fill="none" xmlns="http://www.w3.org/2000/svg">
<path d="M4.05518 4.1748L0.241699 1.86523V1.35498H13.8843V1.86523L9.90967 4.1748L17.0801 33.9038L23.6865 10.5933L21.8604 4.1748L18.5571 1.86523V1.35498H31.9312V1.86523L27.6343 4.1748L35.3149 34.2261L43.291 4.1748L38.4302 1.89209V1.35498H48.7158V1.89209L44.3652 4.1748L34.8047 40H31.7969L24.2505 12.4731L16.4355 40H13.6426L4.05518 4.1748ZM50.1392 39.4897L53.7378 37.207V4.1748L50.1392 1.86523V1.35498H62.7075V1.86523L59.1089 4.1748V37.1802L62.7075 39.4897V40H50.1392V39.4897ZM70.8447 6.96777V36.8311L75.1416 39.4897V40H65.5811V39.4897L69.7974 36.8311V4.1748L65.4468 1.86523V1.35498H73.4229L92.3022 32.373V4.52393L87.9785 1.83838V1.35498H97.6465V1.83838L93.3765 4.52393V40L91.7114 40.6445L70.8447 6.96777ZM99.1235 39.4897L102.722 37.1802V4.14795L99.1235 1.86523V1.35498H113.545C116.911 1.35498 119.838 2.11589 122.327 3.6377C124.815 5.1416 126.731 7.34375 128.074 10.2441C129.434 13.1445 130.115 16.6089 130.115 20.6372C130.115 24.7013 129.434 28.1836 128.074 31.084C126.731 33.9844 124.788 36.1955 122.246 37.7173C119.722 39.2391 116.732 40 113.276 40H99.1235V39.4897ZM113.035 38.8452C116.866 38.8452 119.686 37.3861 121.494 34.4678C123.32 31.5316 124.233 27.0378 124.233 20.9863C124.233 14.6484 123.32 9.98454 121.494 6.99463C119.668 4.00472 116.938 2.50977 113.303 2.50977H108.093V38.8452H113.035ZM149.263 40.6445C146.219 40.6445 143.534 39.821 141.206 38.1738C138.879 36.5088 137.07 34.1724 135.781 31.1646C134.51 28.1567 133.875 24.6834 133.875 20.7446C133.875 16.7879 134.51 13.2967 135.781 10.271C137.07 7.24528 138.879 4.8999 141.206 3.23486C143.534 1.56982 146.219 0.737305 149.263 0.737305C152.324 0.737305 155.019 1.56982 157.346 3.23486C159.692 4.8999 161.509 7.24528 162.798 10.271C164.087 13.2967 164.731 16.779 164.731 20.7178C164.731 24.6566 164.087 28.1388 162.798 31.1646C161.509 34.1724 159.692 36.5088 157.346 38.1738C155.019 39.821 152.324 40.6445 149.263 40.6445ZM149.263 39.5166C151.232 39.5166 152.942 38.7646 154.392 37.2607C155.842 35.7389 156.952 33.5726 157.722 30.7617C158.492 27.9329 158.877 24.5939 158.877 20.7446C158.877 16.8774 158.492 13.5295 157.722 10.7007C156.952 7.854 155.842 5.67871 154.392 4.1748C152.942 2.65299 151.232 1.89209 149.263 1.89209C147.311 1.89209 145.619 2.65299 144.187 4.1748C142.773 5.69661 141.681 7.87191 140.911 10.7007C140.141 13.5295 139.756 16.8774 139.756 20.7446C139.756 24.5939 140.141 27.9329 140.911 30.7617C141.681 33.5726 142.782 35.7389 144.214 37.2607C145.646 38.7646 147.329 39.5166 149.263 39.5166ZM167.122 39.4897L170.747 37.207V4.1748L167.122 1.86523V1.35498H181.758C184.193 1.35498 186.261 1.75781 187.961 2.56348C189.68 3.35124 190.969 4.47021 191.829 5.92041C192.706 7.37061 193.145 9.0625 193.145 10.9961C193.145 14.0755 192.258 16.5015 190.486 18.2739C188.731 20.0285 186.484 21.1475 183.745 21.6309V21.792C185.124 22.168 186.278 22.3649 187.209 22.3828L194.138 37.207L197.388 39.4897L197.415 40H189.277L181.597 21.8188C180.898 21.9263 180.191 21.98 179.475 21.98H177.568V20.9058H179.771C184.766 20.9058 187.263 17.6562 187.263 11.1572C187.263 8.40007 186.69 6.26953 185.544 4.76562C184.399 3.26172 182.608 2.50977 180.173 2.50977H176.118V37.1802L179.636 39.4897V40H167.122V39.4897Z" fill="#1549FE"/>
</svg>
